<svg xmlns="http://www.w3.org/2000/svg" viewBox="0 0 400 500" fill="none" role="img" aria-label="Tomorrow sloth character placeholder">
  <defs>
    <linearGradient id="bg" x1="200" y1="0" x2="200" y2="500" gradientUnits="userSpaceOnUse">
      <stop stop-color="#f5efe4"/>
      <stop offset="0.55" stop-color="#d4c4a8"/>
      <stop offset="1" stop-color="#fff8f2"/>
    </linearGradient>
    <linearGradient id="body" x1="200" y1="190" x2="200" y2="360" gradientUnits="userSpaceOnUse">
      <stop stop-color="#d8c8ac"/>
      <stop offset="1" stop-color="#b8a488"/>
    </linearGradient>
  </defs>
  <rect width="400" height="500" fill="url(#bg)"/>
  <rect x="110" y="160" width="180" height="110" rx="18" fill="#fff8f2" stroke="#eadfd6" stroke-width="3"/>
  <path d="M130 205h120" stroke="#c4b49a" stroke-width="5" stroke-linecap="round"/>
  <path d="M130 225h80" stroke="#d4c4a8" stroke-width="4" stroke-linecap="round"/>
  <text x="200" y="252" text-anchor="middle" fill="#8b7d74" font-size="22" font-family="system-ui,sans-serif">Later</text>
  <ellipse cx="200" cy="420" rx="150" ry="28" fill="#eadfd6" opacity="0.7"/>
  <path d="M150 330c25-40 50-60 50-60s25 20 50 60" stroke="#9a8868" stroke-width="16" stroke-linecap="round"/>
  <ellipse cx="200" cy="290" rx="58" ry="52" fill="url(#body)"/>
  <circle cx="182" cy="278" r="7" fill="#5f4f47"/>
  <circle cx="218" cy="278" r="7" fill="#5f4f47"/>
  <path d="M188 296c6 6 18 6 24 0" stroke="#7a6a52" stroke-width="4" stroke-linecap="round"/>
  <ellipse cx="200" cy="250" rx="34" ry="30" fill="#c8b898"/>
</svg>
